<svg id="Layer_1" data-name="Layer 1" xmlns="http://www.w3.org/2000/svg" xmlns:xlink="http://www.w3.org/1999/xlink" viewBox="0 0 900 600"><defs><style>.cls-1,.cls-13,.cls-3,.cls-9{fill:#fff;}.cls-1,.cls-5{fill-rule:evenodd;}.cls-12,.cls-2{fill:none;}.cls-12,.cls-13,.cls-3{stroke:#e1e4e5;}.cls-3{stroke-width:4px;}.cls-4,.cls-5{fill:#e1e4e5;}.cls-6{mask:url(#mask);}.cls-7{fill:#0f1f26;}.cls-8{fill:#064663;}.cls-10{fill:#f8ae9d;}.cls-11{fill:#cc6144;}.cls-12{stroke-linecap:round;stroke-linejoin:round;stroke-width:5.5px;}.cls-13{stroke-width:4px;}</style><mask id="mask" x="147.12" y="493.86" width="606.71" height="25.14" maskUnits="userSpaceOnUse"><g id="a"><path class="cls-1" d="M431.38,497.86H154.89a3.81,3.81,0,0,0,0,7.62H167a2.12,2.12,0,0,1,0,4.23h-3.67a2.65,2.65,0,0,0,0,5.29H738.05a2.65,2.65,0,0,0,0-5.29h-4.64a2.12,2.12,0,0,1,0-4.23h12.67a3.81,3.81,0,0,0,0-7.62Zm-272,14.6a2.51,2.51,0,1,1-5,0v-.21a2.51,2.51,0,1,1,5,0Z"/></g></mask></defs><path class="cls-2" d="M0,0H900V600H0Z"/><path class="cls-3" d="M517,445.69H156.72A18.76,18.76,0,0,1,138,426.94V201.2a18.75,18.75,0,0,1,18.75-18.75H517a18.75,18.75,0,0,1,18.75,18.75V426.94A18.76,18.76,0,0,1,517,445.69Z"/><path class="cls-3" d="M535.76,206.74H138V201.2a18.75,18.75,0,0,1,18.75-18.75H517a18.75,18.75,0,0,1,18.75,18.75v5.54Z"/><path class="cls-4" d="M156,198.36a3.84,3.84,0,0,0,0-7.68h0a3.84,3.84,0,0,0,0,7.68Zm15.35,0a3.84,3.84,0,1,0,.13-7.68h-.13a3.84,3.84,0,0,0,0,7.68Zm15.79,0a3.86,3.86,0,1,0-4.27-3.84A4.07,4.07,0,0,0,187.16,198.36Z"/><path class="cls-3" d="M675.69,369.24H315.41a18.75,18.75,0,0,1-18.75-18.75V124.75A18.76,18.76,0,0,1,315.41,106H675.69a18.75,18.75,0,0,1,18.75,18.75V350.49A18.74,18.74,0,0,1,675.69,369.24Z"/><path class="cls-3" d="M694.44,130.29H296.66v-5.54A18.76,18.76,0,0,1,315.41,106H675.69a18.75,18.75,0,0,1,18.75,18.75Z"/><path class="cls-4" d="M314.71,121.91a3.84,3.84,0,1,0-3.84-3.84A3.83,3.83,0,0,0,314.71,121.91Zm15.35,0a3.84,3.84,0,1,0-3.84-3.84A3.84,3.84,0,0,0,330.06,121.91Zm15.78,0a3.86,3.86,0,1,0-4.26-3.83A4.07,4.07,0,0,0,345.84,121.91Z"/><path class="cls-5" d="M431.38,497.86H154.89a3.81,3.81,0,0,0,0,7.62H167a2.12,2.12,0,0,1,0,4.23h-3.67a2.65,2.65,0,0,0,0,5.29H738.05a2.65,2.65,0,0,0,0-5.29h-4.64a2.12,2.12,0,0,1,0-4.23h12.67a3.81,3.81,0,0,0,0-7.62Zm-272,14.6a2.51,2.51,0,1,1-5,0v-.21a2.51,2.51,0,1,1,5,0Z"/><g class="cls-6"><path class="cls-4" d="M154.89,501.86H431.38v-8H154.89Zm.23-.19a.17.17,0,0,1-.05.12.24.24,0,0,1-.18.07v-8a7.81,7.81,0,0,0-7.77,7.81Zm-.23-.19a.24.24,0,0,1,.18.07.17.17,0,0,1,.05.12h-8a7.81,7.81,0,0,0,7.77,7.81v-8Zm12.14,0H154.89v8H167Zm6.09,6.11a6.1,6.1,0,0,0-6.09-6.11v8a1.89,1.89,0,0,1-1.91-1.87v0ZM167,513.71a6.11,6.11,0,0,0,6.09-6.12h-8a1.89,1.89,0,0,1,1.89-1.88h0Zm-3.67,0H167v-8h-3.67Zm1.39-1.36a1.36,1.36,0,0,1-1.39,1.36v-8a6.64,6.64,0,0,0-6.61,6.64ZM163.36,511a1.37,1.37,0,0,1,1.39,1.35h-8a6.64,6.64,0,0,0,6.61,6.65Zm270,0h-270v8h270Zm6.49,0h-6.49v8h6.49Zm22.81,0H439.83v8h22.81Zm275.41,0H462.64v8H738.05Zm-1.4,1.35a1.37,1.37,0,0,1,1.4-1.35v8a6.64,6.64,0,0,0,6.6-6.65Zm1.4,1.36a1.36,1.36,0,0,1-1.39-1.34v0h8a6.63,6.63,0,0,0-6.6-6.64Zm-4.64,0h4.64v-8h-4.64Zm-6.08-6.12a6.11,6.11,0,0,0,6.08,6.12v-8a1.89,1.89,0,0,1,1.92,1.88Zm6.08-6.11a6.11,6.11,0,0,0-6.08,6.11h8a1.89,1.89,0,0,1-1.92,1.89Zm12.67,0H733.41v8h12.67Zm-.25.19a.17.17,0,0,1,0-.12.29.29,0,0,1,.2-.07v8a7.79,7.79,0,0,0,7.75-7.81Zm.25.19a.29.29,0,0,1-.2-.07.18.18,0,0,1,0-.12h8a7.79,7.79,0,0,0-7.75-7.81Zm-275.38,0H746.08v-8H470.7Zm-39.32,0H470.7v-8H431.38ZM156.85,519a6.53,6.53,0,0,0,6.51-6.54h-8a1.47,1.47,0,0,1,1.49-1.46Zm-6.51-6.54a6.54,6.54,0,0,0,6.51,6.54v-8a1.47,1.47,0,0,1,1.49,1.46Zm0-.21v.21h8v-.21Zm6.51-6.54a6.53,6.53,0,0,0-6.51,6.54h8a1.47,1.47,0,0,1-1.49,1.46v-8Zm6.51,6.54a6.53,6.53,0,0,0-6.51-6.54v8a1.47,1.47,0,0,1-1.49-1.46Zm0,.21v-.21h-8v.21Z"/></g><path class="cls-7" d="M251.46,469.21H405L380.61,354.88H227Z"/><path class="cls-8" d="M245.78,469.21H399.35L374.93,354.89H221.36l24.42,114.33Z"/><path class="cls-9" d="M297.08,405.42a11.56,11.56,0,0,0,11,9.5,7.91,7.91,0,0,0,8-9.5,11.56,11.56,0,0,0-11-9.49A7.9,7.9,0,0,0,297.08,405.42Z"/><path class="cls-8" d="M289.21,499.07h75.53V493.2l-75.53-2.44v8.31Z"/><path class="cls-8" d="M268.68,499.06h40.54L333.64,435H293.1Z"/><path class="cls-7" d="M262,499.06h40.56L327,435H286.42Z"/><path class="cls-10" d="M470.91,344.06c3,4.66,10.73,10.08,16.23,10,18.74-.34,24.91-13.11,26.93-17.76a14.75,14.75,0,0,0-1.47-.22c-3.46-.5-7-3.92-8-7.77-1.33-5-3-14.8-2.76-21l-23.71,13.12c0,1.8.16,3.77.33,5.75.12,1.21.24,2.4.38,3.55s.27,2.15.41,3.11a8.51,8.51,0,0,1-3.74,8.26l-4.59,3Z"/><path class="cls-7" d="M468.87,293c1.28,3.36.74,7.17-.55,10.52-.92,2.37-3,.28-5.51.33-3.93.06-7-4-9.38-14.87-1.51-8-1.89-12-1.58-12.77,1.08-2.76,4.66-4.23,7.61-4.49"/><path class="cls-10" d="M462.89,269.18c-6.2,7.47-8.46,28.48-3.22,43.12,3.72,10.41,8,17.13,13.09,16.91,7.66-.32,22.51-6.62,27.35-11.88,8.71-9.47,6.18-28.05,4.38-39.74-1.63-10.62-6.61-24.41-20-21.79-8.77,1.72-16.09,6.67-21.64,13.38Z"/><path class="cls-7" d="M498,277.43c-1.37,1.76-3.8,2.15-5.8,2.5-2.68.47-4,1.45-5.4,4.07-.88,1.68-1.76,3.52-3.34,4.42-1.28.75-1.24-1.15-1.44-2.61,0-.13-.05-.26-.08-.38-.31-1.17-1.56-1-1.93.18a4.13,4.13,0,0,1-2,2.4.7.7,0,0,1-.46.12,1,1,0,0,1-.52-.4,14.26,14.26,0,0,1-.88-1.37c-1-1.66-2.85-1.06-3.95.53a4.74,4.74,0,0,1-2.63,2.23.85.85,0,0,1-1-.33c-.21-.43.12-.86.06-1.29a2.37,2.37,0,0,0-4-1.22c-.75.78-1.54,1.53-2.35,2.25-.34.3-.84.6-1.19.3a1.13,1.13,0,0,1-.27-.69l-.57-3.8c-.11-.71-.49-1.63-1.14-1.45-.32.09-.5.42-.68.71s-4,4.7-4.11,4.37c-.59-2.45-1.81-4.68-2.4-7.14-3.84-15.79,13.21-28.5,26.24-28.57a33.92,33.92,0,0,1,8.36.7,33,33,0,0,1,8.88,3.46c3.82,2.25,6.71,6.33,6,11.2"/><path class="cls-7" d="M491.82,272c-1.9,2.14-2.4,5.16-2.58,8-.26,4.29.1,8.75,2.08,12.57.57,1.08,1,6.45,1.86,6.16.28-.1.23-4.26,1-6.51,1.13-3.48,6.35-4.8,8.7-2.6,3.74,3.49,1.55,7.74.3,10.39-.74,1.59-1.92,3.38-2.12,5.07-.25,2.16-.33,10,1.08,11.88,1.18,1.54,2.43-5.9,3.5-7.37,7.9-10.92,15.47-38.72,2-44.75-2-.92-8.38-1.39-10.3-.23M445.5,497.41c-.78.13-4.18,0-5,0-4.34.14-10.76.72-15,0-3.73-.64-3.5-6.64-3.42-11.14a429.69,429.69,0,0,1,15.31-105.55c1.44-5.25,3-10.54,5.76-15.23,4.71-8,15.51-14.92,23.79-18.8,1.17-.54,6,2.54,7.19,2s1.94-1.19,3-1.64c3-1.33,5.08,1.44,7.62,2.6a9.31,9.31,0,0,0,4.24.91c1.17,0,2.24-.76,3.32-.2,4.84,2.5,16.86-16.09,16.86-16.09l5.23,5.43,15.24,16,38.09,52.49s6.91,43,11.67,71.2c.82,4.86,4.09,15.37,4.74,19.06-.14-.8-32.52-1-34.27-1h-66c-3.7,0-13.65,1.56-16.25-1.15-3.2-3.34-6.9-18.67-7.1-23-.64-14.44.36-28.77.55-43.3-.08,5.91-1.78,11.25-2.51,17-.93,7.45-2.27,14.89-3.47,22.3-1,6-1.9,11.93-2.64,17.93-.33,2.7.09,4.3-2.19,5.36-1.92.88-2.51,4.41-4.75,4.79Z"/><path class="cls-8" d="M431.16,499.36h52.78c4.51,0-2-12.83-18.45-17.75S426,494.54,431.16,499.36Z"/><path class="cls-7" d="M450.88,499.36a35,35,0,0,0-1.33-4.1,24.41,24.41,0,0,0-1.88-3.8,18.5,18.5,0,0,0-2.54-3.37l-.74-.76-.82-.69c-.51-.51-1.15-.84-1.71-1.32a12.28,12.28,0,0,1,3.74,2.29,14,14,0,0,1,2.81,3.41,17.05,17.05,0,0,1,2.47,8.34Z"/><path class="cls-7" d="M444.62,487.15c-1.43.77-2.85,1.58-4.25,2.41s-2.77,1.69-4.07,2.63a25.42,25.42,0,0,0-3.68,3.09,9.37,9.37,0,0,0-2.46,4.07,7.67,7.67,0,0,1,1.95-4.52,18.88,18.88,0,0,1,3.68-3.35,32.22,32.22,0,0,1,8.83-4.33Z"/><path class="cls-10" d="M458,480.7c1.76-.73,12.64-3.43,17.55-4.45,2.57-.53,14.22-3.55,16.92-3.55s6.38,3.86,6.38,3.86l-1,13.28c-2.59-.26-6.07,1.08-7.94,1.34s-8.2.3-12.1-1.66c-.22-.11-.42-.23-.63-.35-1.56,1.39-3.53,2.74-5.71,2.85,0,0-1.71-.17-1.54-.86a31.77,31.77,0,0,1,2.34-3.75c-1.67,1.7-4.4,4.46-7.55,4.61,0,0-1.7-.17-1.54-.86a48.47,48.47,0,0,1,3.05-4.79s-.05,0-.06.05c-1.38,1.22-4.67,5.41-8.55,5.6,0,0-1.71-.17-1.54-.86a17.42,17.42,0,0,1,1.49-2.48,22.29,22.29,0,0,1-3.68,2.31c-4.21,2.07-6.6.5-6.6,0s8.92-9.57,10.69-10.29Z"/><path class="cls-7" d="M495.82,465.28a13.15,13.15,0,0,0-6.17,12c.6,8.17,3.05,17.63,13.28,16.64S495.82,465.28,495.82,465.28Z"/><path class="cls-7" d="M501.28,493.11c24.51,8.51,57.3.38,78.1-13.75,13-8.83,21.33-20.05,19.93-31-3.63-28.47-26-93.71-45.35-103.23-13.15-6.47-29.11-9.15-38-10.23-4.17-.51-6.78-.63-6.78-.63l3.23,9.11L528.56,389c.6,27.05,20,43.1,16.11,49.4s-34.26,13.07-50.22,23.82c-4.42,3-10,24.59,6.83,30.94Z"/><path class="cls-9" d="M527.56,389a58.35,58.35,0,0,0,2,15.25,80.17,80.17,0,0,0,5.6,14.39c1.14,2.3,2.35,4.57,3.61,6.81s2.5,4.47,3.54,6.75a13.6,13.6,0,0,1,1.13,3.48,4.26,4.26,0,0,1-.06,1.64,3.41,3.41,0,0,1-.29.71,5.29,5.29,0,0,1-.52.65,22.63,22.63,0,0,1-6.29,3.87c-9.26,4.22-19.09,7.35-28.46,11.56a96.63,96.63,0,0,0-13.64,7.22l-.8.54a9.11,9.11,0,0,0-.78.64A7.35,7.35,0,0,0,491.4,464a14.33,14.33,0,0,0-1.51,3.59,29.38,29.38,0,0,0-1,7.63,32.88,32.88,0,0,1,1.35-7.52c.8-2.4,2-4.74,4.34-5.87A97,97,0,0,1,508.27,455c4.73-1.94,9.51-3.79,14.3-5.58s9.62-3.55,14.34-5.7c2.31-1.16,4.7-2.24,6.67-4.24a5.66,5.66,0,0,0,.67-.86,4.22,4.22,0,0,0,.43-1.06,5.5,5.5,0,0,0,.08-2.17,14.89,14.89,0,0,0-1.26-3.8c-1.1-2.38-2.39-4.59-3.64-6.83s-2.52-4.45-3.72-6.71c-4.77-9-8.09-18.86-8.58-29.14Z"/><path class="cls-7" d="M465,347.57c2.34,2.32,12.75,9.74,22.67,9.74a28.91,28.91,0,0,0,5.25-.49c8.33-1.53,15.34-7.08,19.44-13.45a28.07,28.07,0,0,0,2-3.66A21,21,0,0,0,516,334.9c-4.18-.51-8.17-1.56-8.82-2.3-.7,4.86-6.71,13.64-15.8,15.29a19.67,19.67,0,0,1-3.24.33h0a17.93,17.93,0,0,1-9.78-2.67s-4.35-3.41-4.37-3.43L465,347.57Z"/><path class="cls-9" d="M458.51,453.56c0-.46,0-.9,0-1.36s.07-1,.11-1.46l.27-2.81c.17-1.91.35-3.83.49-5.74q.43-5.7.59-11.41c.19-7.61.08-15.23-.43-22.83-.14-2.12-.32-4.24-.51-6.36-.11-1.09-.22-2.18-.34-3.26a31.39,31.39,0,0,1-.3-3.21c0-.67,1-.71,1.14-.09a42,42,0,0,1,.7,5.72q.29,2.83.49,5.69.42,5.76.55,11.52a211.49,211.49,0,0,1-.76,22.93q-.27,3.21-.66,6.41c-.13,1.08-.27,2.17-.43,3.25-.07.48-.14,1-.23,1.43s-.32,1.06-.43,1.61c-.06.13-.25.08-.23,0Z"/><path class="cls-11" d="M460.64,305.49c-.06,0-.24-.1-.09-.1S460.79,305.49,460.64,305.49Z"/><path class="cls-8" d="M651.59,455.33l-3.42,42.49H624.53l-3.42-42.49Z"/><path class="cls-7" d="M653.54,451.5H618.79v6.19h34.75Zm-2.38,0h-30l1.75-7H649.4Z"/><path class="cls-9" d="M643.12,477a7,7,0,0,1-7,6.95h0a7,7,0,0,1-6.95-6.95h0a7,7,0,0,1,6.94-7h0a7,7,0,0,1,7,7Z"/><path class="cls-12" d="M192.54,240.27l-10.66,10.66-5.18-5.17m39-10.58h31.52M215.9,250.81H268m-75.47,25.95-10.67,10.65-5.18-5.16m39-10.59h31.52M215.9,287.3H268m0,36.48H215.65M268,308.15H215.9"/><path class="cls-12" d="M184.62,329a10.43,10.43,0,1,0-10.42-10.43A10.43,10.43,0,0,0,184.62,329Z"/><path class="cls-12" d="M581.73,207.84,571.07,218.5l-5.19-5.17m39-10.59h31.51m-31.27,15.64H657.2m-75.47,26L571.07,255l-5.19-5.16m39-10.59h31.51m-31.27,15.64H657.2m0,36.48H604.84m52.36-15.63H605.08"/><path class="cls-12" d="M573.81,296.57a10.43,10.43,0,1,0-10.43-10.43A10.42,10.42,0,0,0,573.81,296.57Z"/><path class="cls-12" d="M344.28,170.78l-10.66,10.65-5.18-5.16m38.95-10.59h31.52m67.18,0h31.52m65.77-.29H619M367.63,181.32h52.13m46.57,0h52.13m44.92-.29h92.67M344.28,207.26l-10.66,10.66-5.18-5.17m38.95-10.58h31.52m67.18,0h31.52m-130,15.63h52.13m46.57,0h52.13m-98.71,36.49H367.39m52.37-15.64H367.63"/><path class="cls-12" d="M336.36,259.5a10.43,10.43,0,1,0-10.43-10.42A10.43,10.43,0,0,0,336.36,259.5Z"/><path class="cls-5" d="M357.47,307.92h-2.06a.89.89,0,0,1-.9-.89V305a.9.9,0,0,1,.9-.9h2.06a.89.89,0,0,1,.89.9V307a.88.88,0,0,1-.89.89Zm-7.14,0h-2.06a.89.89,0,0,1-.9-.89V305a.9.9,0,0,1,.9-.9h2.06a.89.89,0,0,1,.89.9V307A.89.89,0,0,1,350.33,307.92Zm-7.15,0h-2.06a.89.89,0,0,1-.9-.89V305a.9.9,0,0,1,.9-.9h2.06a.9.9,0,0,1,.9.9V307a.89.89,0,0,1-.9.89Zm-7.14,0H334a.89.89,0,0,1-.9-.89V305a.9.9,0,0,1,.9-.9H336a.9.9,0,0,1,.9.9V307A.9.9,0,0,1,336,307.92Zm-7.14,0h-2.06a.91.91,0,0,1-.91-.89V305a.9.9,0,0,1,.91-.9h2.06a.9.9,0,0,1,.9.9V307A.91.91,0,0,1,328.9,307.92Zm21.16-7.78H348a.92.92,0,0,1-.9-.9v-2.06a.9.9,0,0,1,.9-.9h2.06a.9.9,0,0,1,.9.9v2.06a.9.9,0,0,1-.89.9Zm-7.14,0h-2.06a.91.91,0,0,1-.9-.9v-2.06a.9.9,0,0,1,.9-.9h2.06a.9.9,0,0,1,.9.9v2.06a.9.9,0,0,1-.89.9Zm-7.14,0h-2.06a.9.9,0,0,1-.9-.9v-2.06a.9.9,0,0,1,.9-.9h2.06a.9.9,0,0,1,.9.9v2.06a.9.9,0,0,1-.9.9Zm7.4,16.15h-2.06a.9.9,0,0,1-.9-.9v-2.06a.9.9,0,0,1,.9-.9h2.06a.91.91,0,0,1,.9.9v2.06a.9.9,0,0,1-.9.9Zm-7.14,0H334a.9.9,0,0,1-.9-.9v-2.06a.9.9,0,0,1,.9-.9H336a.9.9,0,0,1,.9.9v2.06A.9.9,0,0,1,336,316.29Z"/><path class="cls-13" d="M709.7,425.33l35.23-35.23a3.3,3.3,0,0,1,4.65,0h0a3.3,3.3,0,0,1,0,4.65L714.35,430a3.3,3.3,0,0,1-4.65,0h0A3.3,3.3,0,0,1,709.7,425.33Z"/><path class="cls-13" d="M731.32,425.48l10.16-10.16a3.3,3.3,0,0,1,4.65,0h0a3.3,3.3,0,0,1,0,4.65L736,430.13a3.3,3.3,0,0,1-4.65,0h0A3.3,3.3,0,0,1,731.32,425.48Z"/><path class="cls-3" d="M739.42,368.08a7.49,7.49,0,0,1-1.6,14.1h0l-28.53,6.07-1.1.23-.37,1.06-10.58,29.91a7.44,7.44,0,0,1-14.13-.27L659.88,344.6a7.46,7.46,0,0,1,10.24-9h0l69.3,32.51Z"/></svg>