<?xml version="1.0" encoding="utf-8"?>
<!-- Generator: Adobe Illustrator 26.0.2, SVG Export Plug-In . SVG Version: 6.00 Build 0)  -->
<svg version="1.1" id="Layer_1" xmlns="http://www.w3.org/2000/svg" xmlns:xlink="http://www.w3.org/1999/xlink" x="0px" y="0px"
	 viewBox="0 0 401.9 267.2" style="enable-background:new 0 0 401.9 267.2;" xml:space="preserve">
<style type="text/css">
	.st0{fill:none;}
	.st1{fill:#FFFFFF;stroke:#E1E4E5;stroke-width:4;}
	.st2{fill:#E1E4E5;}
	.st3{fill-rule:evenodd;clip-rule:evenodd;fill:#E1E4E5;}
	.st4{fill:#0F1F26;}
	.st5{fill:#064663;}
	.st6{fill:#FFFFFF;}
	.st7{fill:#F8AE9D;}
	.st8{fill:#CC6144;}
	.st9{fill:none;stroke:#E1E4E5;stroke-width:5.5;stroke-linecap:round;stroke-linejoin:round;}
</style>
<path class="st0" d="M511.5-1344h900v600h-900V-1344z"/>
<path class="st1" d="M1028.5-898.3H668.3c-10.4,0-18.7-8.4-18.7-18.8v-225.7c0-10.4,8.4-18.8,18.7-18.8h360.3
	c10.4,0,18.8,8.4,18.8,18.8v225.7C1047.3-906.7,1038.9-898.3,1028.5-898.3L1028.5-898.3z"/>
<path class="st1" d="M1047.3-1137.3H649.5v-5.5c0-10.4,8.4-18.8,18.7-18.8h360.3c10.4,0,18.8,8.4,18.8,18.8V-1137.3L1047.3-1137.3z"
	/>
<path class="st2" d="M667.6-1145.6c2.1,0,3.8-1.7,3.8-3.8s-1.7-3.8-3.8-3.8l0,0c-2.1,0-3.8,1.7-3.8,3.8S665.4-1145.6,667.6-1145.6z
	 M682.9-1145.6c2.1,0,3.9-1.7,3.9-3.8s-1.7-3.9-3.8-3.9h-0.1c-2.1,0-3.8,1.8-3.8,3.9C679.2-1147.3,680.8-1145.7,682.9-1145.6z
	 M698.7-1145.6c2.4,0,4.3-1.7,4.3-3.8s-1.9-3.8-4.3-3.8s-4.3,1.7-4.3,3.8C694.4-1147.4,696.3-1145.6,698.7-1145.6z"/>
<path class="st1" d="M1187.2-974.8H826.9c-10.4,0-18.8-8.4-18.8-18.8v-225.7c0-10.4,8.4-18.8,18.8-18.8h360.3
	c10.4,0,18.8,8.4,18.8,18.8v225.7C1206-983.2,1197.6-974.8,1187.2-974.8z"/>
<path class="st1" d="M1206-1213.7H808.2v-5.5c0-10.4,8.4-18.8,18.8-18.8h360.3c10.4,0,18.7,8.4,18.7,18.8V-1213.7L1206-1213.7z"/>
<path class="st2" d="M826.2-1222.1c2.1,0,3.8-1.7,3.8-3.8s-1.7-3.8-3.8-3.8s-3.8,1.7-3.8,3.8S824.1-1222.1,826.2-1222.1z
	 M841.6-1222.1c2.1,0,3.8-1.7,3.8-3.8s-1.7-3.8-3.8-3.8s-3.8,1.7-3.8,3.8C837.8-1223.8,839.5-1222.1,841.6-1222.1z M857.4-1222.1
	c2.4,0,4.3-1.7,4.3-3.8s-1.9-3.8-4.3-3.8s-4.3,1.7-4.3,3.8S855-1222.1,857.4-1222.1z"/>
<path class="st3" d="M942.9-846.1H666.4c-2.1,0-3.8,1.7-3.8,3.8s1.7,3.8,3.8,3.8h12.1c1.1,0,2.1,1,2.1,2.1c0,1.2-0.9,2.1-2.1,2.1
	h-3.7c-1.4,0-2.6,1.2-2.6,2.6c0,1.5,1.2,2.6,2.6,2.6h574.7c1.4,0,2.6-1.2,2.6-2.6c0-1.4-1.2-2.6-2.6-2.6h-4.6c-1.1,0-2.1-1-2.1-2.1
	c0-1.2,0.9-2.1,2.1-2.1h12.7c2.1,0,3.8-1.7,3.8-3.8s-1.7-3.8-3.8-3.8H942.9L942.9-846.1z M670.9-831.5c0,1.4-1.1,2.5-2.5,2.5
	s-2.5-1.1-2.5-2.5v-0.2c0-1.4,1.1-2.5,2.5-2.5s2.5,1.1,2.5,2.5V-831.5z"/>
<path class="st2" d="M666.4-842.1h276.5v-8H666.4V-842.1z M666.7-842.3L666.7-842.3c-0.1,0.1-0.1,0.2-0.2,0.2v-8
	c-4.3,0-7.8,3.5-7.8,7.8H666.7L666.7-842.3z M666.4-842.5c0.1,0,0.1,0,0.2,0.1v0.1h-8c0,4.3,3.4,7.8,7.8,7.8V-842.5L666.4-842.5z
	 M678.6-842.5h-12.2v8h12.1L678.6-842.5L678.6-842.5z M684.7-836.4c0-3.3-2.7-6.1-6.1-6.1v8c-1,0-1.9-0.8-1.9-1.9l0,0H684.7z
	 M678.6-830.3c3.4,0,6.1-2.8,6.1-6.1h-8c0-1,0.9-1.9,1.9-1.9l0,0V-830.3z M674.9-830.3h3.7v-8h-3.7V-830.3z M676.3-831.6
	c0,0.7-0.6,1.4-1.4,1.4v-8c-3.7,0-6.6,3-6.6,6.6H676.3z M674.9-833c0.8,0,1.4,0.6,1.4,1.4h-8c0,3.6,2.9,6.6,6.6,6.6V-833z
	 M944.9-833h-270v8h270V-833z M951.4-833h-6.5v8h6.5V-833z M974.2-833h-22.8v8h22.8V-833z M1249.6-833H974.2v8h275.4V-833z
	 M1248.2-831.6c0-0.7,0.6-1.4,1.4-1.4v8c3.7,0,6.6-3,6.6-6.6H1248.2z M1249.6-830.3c-0.8,0-1.4-0.6-1.4-1.3l0,0h8
	c0-3.6-2.9-6.6-6.6-6.6V-830.3z M1245-830.3h4.6v-8h-4.6V-830.3z M1238.9-836.4c0,3.3,2.7,6.1,6.1,6.1v-8c1.1,0,1.9,0.9,1.9,1.9
	H1238.9z M1245-842.5c-3.4,0-6.1,2.8-6.1,6.1h8c0,1-0.8,1.9-1.9,1.9V-842.5z M1257.6-842.5h-12.7v8h12.7V-842.5z M1257.4-842.3
	L1257.4-842.3c0.1-0.1,0.1-0.2,0.2-0.2v8c4.3,0,7.8-3.6,7.8-7.8L1257.4-842.3L1257.4-842.3z M1257.6-842.1c-0.1,0-0.1,0-0.2-0.1
	v-0.1h8c0-4.2-3.4-7.8-7.8-7.8V-842.1z M982.2-842.1h275.4v-8H982.2V-842.1z M942.9-842.1h39.3v-8h-39.3V-842.1z M668.4-825
	c3.6,0,6.5-3,6.5-6.5h-8c0-0.8,0.6-1.5,1.5-1.5V-825z M661.9-831.5c0,3.6,2.9,6.5,6.5,6.5v-8c0.9,0,1.5,0.7,1.5,1.5H661.9z
	 M661.9-831.8v0.2h8v-0.2H661.9z M668.4-838.3c-3.6,0-6.5,3-6.5,6.5h8c0,0.8-0.6,1.5-1.5,1.5V-838.3L668.4-838.3z M674.9-831.8
	c0-3.6-2.9-6.5-6.5-6.5v8c-0.9,0-1.5-0.7-1.5-1.5H674.9L674.9-831.8z M674.9-831.5v-0.2h-8v0.2H674.9z"/>
<path class="st4" d="M763-874.8h153.6l-24.4-114.3H738.6L763-874.8z"/>
<path class="st5" d="M757.3-874.8h153.6l-24.4-114.3H732.9L757.3-874.8L757.3-874.8z"/>
<path class="st6" d="M808.6-938.6c0.8,5.2,5.8,9.5,11,9.5s8.8-4.3,8-9.5s-5.8-9.5-11-9.5S807.8-943.8,808.6-938.6z"/>
<path class="st5" d="M800.7-844.9h75.5v-5.9l-75.5-2.4V-844.9L800.7-844.9z"/>
<path class="st5" d="M780.2-844.9h40.5l24.4-64.1h-40.5L780.2-844.9z"/>
<path class="st4" d="M773.5-844.9h40.6l24.4-64.1h-40.6L773.5-844.9z"/>
<path class="st7" d="M982.4-999.9c3,4.7,10.7,10.1,16.2,10c18.7-0.3,24.9-13.1,26.9-17.8c-0.4-0.1-1-0.2-1.5-0.2
	c-3.5-0.5-7-3.9-8-7.8c-1.3-5-3-14.8-2.8-21l-23.7,13.1c0,1.8,0.2,3.8,0.3,5.8c0.1,1.2,0.2,2.4,0.4,3.5c0.1,1.1,0.3,2.2,0.4,3.1
	c0.4,3.2-1,6.5-3.7,8.3L982.4-999.9L982.4-999.9z"/>
<path class="st4" d="M980.4-1051c1.3,3.4,0.7,7.2-0.6,10.5c-0.9,2.4-3,0.3-5.5,0.3c-3.9,0.1-7-4-9.4-14.9c-1.5-8-1.9-12-1.6-12.8
	c1.1-2.8,4.7-4.2,7.6-4.5"/>
<path class="st7" d="M974.4-1074.8c-6.2,7.5-8.5,28.5-3.2,43.1c3.7,10.4,8,17.1,13.1,16.9c7.7-0.3,22.5-6.6,27.3-11.9
	c8.7-9.5,6.2-28,4.4-39.7c-1.6-10.6-6.6-24.4-20-21.8C987.3-1086.5,980-1081.5,974.4-1074.8L974.4-1074.8z"/>
<path class="st4" d="M1009.5-1066.6c-1.4,1.8-3.8,2.2-5.8,2.5c-2.7,0.5-4,1.4-5.4,4.1c-0.9,1.7-1.8,3.5-3.3,4.4
	c-1.3,0.7-1.2-1.2-1.4-2.6c0-0.1,0-0.3-0.1-0.4c-0.3-1.2-1.6-1-1.9,0.2c-0.3,1-1,1.9-2,2.4c-0.1,0.1-0.3,0.1-0.5,0.1
	s-0.4-0.2-0.5-0.4c-0.3-0.4-0.6-0.9-0.9-1.4c-1-1.7-2.8-1.1-3.9,0.5c-0.7,1-1.5,2-2.6,2.2c-0.4,0.1-0.8,0-1-0.3
	c-0.2-0.4,0.1-0.9,0.1-1.3s-0.2-0.6-0.4-0.9c-0.8-1.4-2.5-1.4-3.6-0.3c-0.7,0.8-1.5,1.5-2.3,2.3c-0.3,0.3-0.8,0.6-1.2,0.3
	c-0.2-0.2-0.2-0.4-0.3-0.7c-0.2-1.3-0.4-2.5-0.6-3.8c-0.1-0.7-0.5-1.6-1.1-1.5c-0.3,0.1-0.5,0.4-0.7,0.7c-0.2,0.4-4,4.7-4.1,4.4
	c-0.6-2.5-1.8-4.7-2.4-7.1c-3.8-15.8,13.2-28.5,26.2-28.6c2.9,0,5.5,0,8.4,0.7c3,0.7,6.2,1.9,8.9,3.5c3.8,2.2,6.7,6.3,6,11.2"/>
<path class="st4" d="M1003.4-1072c-1.9,2.1-2.4,5.2-2.6,8c-0.3,4.3,0.1,8.8,2.1,12.6c0.6,1.1,1,6.5,1.9,6.2c0.3-0.1,0.2-4.3,1-6.5
	c1.1-3.5,6.3-4.8,8.7-2.6c3.7,3.5,1.5,7.7,0.3,10.4c-0.7,1.6-1.9,3.4-2.1,5.1c-0.2,2.2-0.3,10,1.1,11.9c1.2,1.5,2.4-5.9,3.5-7.4
	c7.9-10.9,15.5-38.7,2-44.8c-2.1-0.9-8.4-1.4-10.3-0.2 M957-846.6c-0.8,0.1-4.2,0-5,0c-4.3,0.1-10.8,0.7-15,0
	c-3.7-0.6-3.5-6.6-3.4-11.1c0.6-35.6,5.9-71.2,15.3-105.5c1.4-5.3,3-10.5,5.8-15.2c4.7-8,15.5-14.9,23.8-18.8c1.2-0.5,6,2.5,7.2,2
	c1-0.5,1.9-1.2,3-1.6c3-1.3,5.1,1.4,7.6,2.6c1.3,0.6,2.8,1,4.2,0.9c1.2,0,2.2-0.8,3.3-0.2c4.8,2.5,16.9-16.1,16.9-16.1l5.2,5.4
	l15.2,16l38.1,52.5c0,0,6.9,43,11.7,71.2c0.8,4.9,4.1,15.4,4.7,19.1c-0.1-0.8-32.5-1-34.3-1h-66c-3.7,0-13.7,1.6-16.3-1.2
	c-3.2-3.3-6.9-18.7-7.1-23c-0.6-14.4,0.4-28.8,0.5-43.3c-0.1,5.9-1.8,11.3-2.5,17c-0.9,7.5-2.3,14.9-3.5,22.3
	c-1,6-1.9,11.9-2.6,17.9c-0.3,2.7,0.1,4.3-2.2,5.4C959.9-850.5,959.3-847,957-846.6L957-846.6z"/>
<path class="st5" d="M942.7-844.6h52.8c4.5,0-2-12.8-18.4-17.7C960.6-867.3,937.5-849.5,942.7-844.6L942.7-844.6z"/>
<path class="st4" d="M963.4-844.6c-0.3-1.4-0.8-2.8-1.3-4.1s-1.1-2.6-1.9-3.8c-0.7-1.2-1.6-2.3-2.5-3.4l-0.7-0.8l-0.8-0.7
	c-0.5-0.5-1.2-0.8-1.7-1.3c1.3,0.6,2.7,1.3,3.7,2.3c1.1,1,2.1,2.1,2.8,3.4C962.5-850.5,963.4-847.6,963.4-844.6L963.4-844.6z"/>
<path class="st4" d="M957.2-856.9c-1.4,0.8-2.8,1.6-4.2,2.4c-1.4,0.8-2.8,1.7-4.1,2.6c-1.3,0.9-2.6,1.9-3.7,3.1s-2.1,2.5-2.5,4.1
	c0-1.7,0.9-3.2,1.9-4.5c1.1-1.3,2.3-2.4,3.7-3.3C951-854.4,954-855.9,957.2-856.9L957.2-856.9z"/>
<path class="st7" d="M969.5-863.3c1.8-0.7,12.6-3.4,17.6-4.4c2.6-0.5,14.2-3.6,16.9-3.6s6.4,3.9,6.4,3.9l-1,13.3
	c-2.6-0.3-6.1,1.1-7.9,1.3s-8.2,0.3-12.1-1.7c-0.2-0.1-0.4-0.2-0.6-0.4c-1.6,1.4-3.5,2.7-5.7,2.9c0,0-1.7-0.2-1.5-0.9
	c0.1-0.3,1.2-2.1,2.3-3.7c-1.7,1.7-4.4,4.5-7.5,4.6c0,0-1.7-0.2-1.5-0.9c0.1-0.4,1.7-2.8,3-4.8c0,0,0,0-0.1,0
	c-1.4,1.2-4.7,5.4-8.6,5.6c0,0-1.7-0.2-1.5-0.9c0.1-0.2,0.7-1.3,1.5-2.5c-1.2,0.9-2.4,1.7-3.7,2.3c-4.2,2.1-6.6,0.5-6.6,0
	C958.8-853.5,967.8-862.6,969.5-863.3L969.5-863.3z"/>
<path class="st4" d="M1007.4-878.7c0,0-6.8,3.8-6.2,12s3.1,17.6,13.3,16.6C1024.7-851.1,1007.4-878.7,1007.4-878.7z"/>
<path class="st4" d="M1012.8-850.9c24.5,8.5,57.3,0.4,78.1-13.7c13-8.8,21.3-20,19.9-31c-3.6-28.5-26-93.7-45.3-103.2
	c-13.2-6.5-29.1-9.2-38-10.2c-4.2-0.5-6.8-0.6-6.8-0.6l3.2,9.1l16.2,45.6c0.6,27,20,43.1,16.1,49.4c-3.8,6.3-34.3,13.1-50.2,23.8
	C1001.6-878.8,996-857.2,1012.8-850.9L1012.8-850.9z"/>
<path class="st6" d="M1040.1-955c0,5.1,0.7,10.3,2,15.2c1.3,5,3.3,9.8,5.6,14.4c1.1,2.3,2.3,4.6,3.6,6.8c1.2,2.2,2.5,4.5,3.5,6.8
	c0.5,1.1,1,2.3,1.1,3.5c0,0.6,0.1,1.1-0.1,1.6c0,0.3-0.2,0.5-0.3,0.7c-0.2,0.2-0.3,0.4-0.5,0.6c-1.7,1.7-4,2.8-6.3,3.9
	c-9.3,4.2-19.1,7.3-28.5,11.6c-4.7,2.1-9.3,4.4-13.6,7.2l-0.8,0.5c-0.3,0.2-0.5,0.4-0.8,0.6c-0.5,0.5-0.9,1-1.2,1.6
	c-0.7,1.1-1.2,2.3-1.5,3.6c-0.7,2.5-1,5.1-1,7.6c0.2-2.6,0.6-5.1,1.3-7.5c0.8-2.4,2-4.7,4.3-5.9c4.3-2.7,9-4.8,13.7-6.8
	c4.7-1.9,9.5-3.8,14.3-5.6s9.6-3.6,14.3-5.7c2.3-1.2,4.7-2.2,6.7-4.2c0.3-0.2,0.5-0.6,0.7-0.9c0.2-0.4,0.4-0.7,0.4-1.1
	c0.2-0.7,0.1-1.5,0.1-2.2c-0.2-1.4-0.7-2.6-1.3-3.8c-1.1-2.4-2.4-4.6-3.6-6.8c-1.3-2.2-2.5-4.5-3.7-6.7
	C1043.9-934.9,1040.6-944.8,1040.1-955L1040.1-955z"/>
<path class="st4" d="M976.6-996.4c2.3,2.3,12.7,9.7,22.7,9.7c1.7,0,3.4-0.1,5.2-0.5c8.3-1.5,15.3-7.1,19.4-13.4
	c0.7-1.2,1.4-2.4,2-3.7c0.7-1.5,1.2-3.1,1.6-4.8c-4.2-0.5-8.2-1.6-8.8-2.3c-0.7,4.9-6.7,13.6-15.8,15.3c-1.1,0.2-2.2,0.3-3.2,0.3
	l0,0c-3.4,0.1-6.8-0.9-9.8-2.7l-4.4-3.4L976.6-996.4L976.6-996.4z"/>
<path class="st6" d="M970-890.4c0-0.5,0-0.9,0-1.4s0.1-1,0.1-1.5l0.3-2.8c0.2-1.9,0.3-3.8,0.5-5.7c0.3-3.8,0.5-7.6,0.6-11.4
	c0.2-7.6,0.1-15.2-0.4-22.8c-0.1-2.1-0.3-4.2-0.5-6.4c-0.1-1.1-0.2-2.2-0.3-3.3s-0.3-2.1-0.3-3.2c0-0.7,1-0.7,1.1-0.1
	c0.4,1.8,0.5,3.8,0.7,5.7s0.3,3.8,0.5,5.7c0.3,3.8,0.5,7.7,0.6,11.5c0.2,7.6-0.1,15.3-0.8,22.9c-0.2,2.1-0.4,4.3-0.7,6.4
	c-0.1,1.1-0.3,2.2-0.4,3.3c-0.1,0.5-0.1,1-0.2,1.4c-0.1,0.6-0.3,1.1-0.4,1.6C970.2-890.3,970-890.3,970-890.4L970-890.4z"/>
<path class="st8" d="M972.2-1038.5C972.1-1038.5,972-1038.6,972.2-1038.5C972.2-1038.6,972.3-1038.5,972.2-1038.5z"/>
<path class="st5" d="M1163.1-888.7l-3.4,42.5h-23.6l-3.4-42.5H1163.1z"/>
<path class="st4" d="M1165.1-892.5h-34.7v6.2h34.7V-892.5z M1162.7-892.5h-30l1.8-7h26.5L1162.7-892.5z"/>
<path class="st6" d="M1154.7-867c0,3.8-3.1,6.9-6.9,7l0,0c-3.8,0-6.9-3.1-6.9-6.9l0,0c0-3.8,3.1-6.9,6.9-7l0,0
	C1151.5-874,1154.7-870.9,1154.7-867L1154.7-867z"/>
<path class="st9" d="M704.1-1103.7l-10.7,10.6l-5.2-5.2 M727.2-1108.8h31.5 M727.4-1093.2h52.1 M704.1-1067.2l-10.7,10.6l-5.2-5.2
	 M727.2-1072.3h31.5 M727.4-1056.7h52.1 M779.6-1020.2h-52.4 M779.6-1035.9h-52.2"/>
<path class="st9" d="M696.2-1015c5.8,0,10.4-4.7,10.4-10.4c0-5.8-4.7-10.4-10.4-10.4c-5.8,0-10.4,4.7-10.4,10.4
	C685.7-1019.7,690.4-1015,696.2-1015z"/>
<path class="st9" d="M1093.3-1136.2l-10.7,10.7l-5.2-5.2 M1116.4-1141.3h31.5 M1116.6-1125.6h52.1 M1093.3-1099.7l-10.7,10.7
	l-5.2-5.2 M1116.4-1104.8h31.5 M1116.6-1089.1h52.1 M1168.7-1052.6h-52.3 M1168.7-1068.3h-52.1"/>
<path class="st9" d="M1085.3-1047.4c5.8,0,10.4-4.7,10.4-10.4c0-5.7-4.7-10.4-10.4-10.4c-5.8,0-10.4,4.7-10.4,10.4
	S1079.6-1047.4,1085.3-1047.4z"/>
<path class="st9" d="M855.8-1173.2l-10.7,10.7l-5.2-5.2 M878.9-1178.3h31.5 M977.6-1178.3h31.5 M1074.9-1178.6h55.6 M879.2-1162.7
	h52.1 M977.9-1162.7h52.1 M1074.9-1163h92.7 M855.8-1136.7l-10.7,10.7l-5.2-5.2 M878.9-1141.8h31.5 M977.6-1141.8h31.5
	 M879.2-1126.2h52.1 M977.9-1126.2h52.1 M931.3-1089.7h-52.4 M931.3-1105.3h-52.1"/>
<path class="st9" d="M847.9-1084.5c5.8,0,10.4-4.7,10.4-10.4c0-5.8-4.7-10.4-10.4-10.4c-5.8,0-10.4,4.7-10.4,10.4
	S842.1-1084.5,847.9-1084.5z"/>
<path class="st3" d="M869-1036.1h-2.1c-0.5,0-0.9-0.4-0.9-0.9v-2.1c0-0.5,0.4-0.9,0.9-0.9h2.1c0.5,0,0.9,0.4,0.9,0.9v2.1
	C869.9-1036.5,869.5-1036.1,869-1036.1L869-1036.1z M861.9-1036.1h-2.1c-0.5,0-0.9-0.4-0.9-0.9v-2.1c0-0.5,0.4-0.9,0.9-0.9h2.1
	c0.5,0,0.9,0.4,0.9,0.9v2.1C862.8-1036.5,862.4-1036.1,861.9-1036.1z M854.7-1036.1h-2.1c-0.5,0-0.9-0.4-0.9-0.9v-2.1
	c0-0.5,0.4-0.9,0.9-0.9h2.1c0.5,0,0.9,0.4,0.9,0.9v2.1C855.6-1036.5,855.2-1036.1,854.7-1036.1L854.7-1036.1z M847.6-1036.1h-2.1
	c-0.5,0-0.9-0.4-0.9-0.9v-2.1c0-0.5,0.4-0.9,0.9-0.9h2.1c0.5,0,0.9,0.4,0.9,0.9v2.1C848.5-1036.5,848.1-1036.1,847.6-1036.1z
	 M840.4-1036.1h-2.1c-0.5,0-0.9-0.4-0.9-0.9v-2.1c0-0.5,0.4-0.9,0.9-0.9h2.1c0.5,0,0.9,0.4,0.9,0.9v2.1
	C841.3-1036.5,840.9-1036.1,840.4-1036.1z M861.6-1043.9h-2.1c-0.5,0-0.9-0.4-0.9-0.9v-2.1c0-0.5,0.4-0.9,0.9-0.9h2.1
	c0.5,0,0.9,0.4,0.9,0.9v2.1C862.5-1044.3,862.1-1043.9,861.6-1043.9L861.6-1043.9L861.6-1043.9z M854.5-1043.9h-2.1
	c-0.5,0-0.9-0.4-0.9-0.9v-2.1c0-0.5,0.4-0.9,0.9-0.9h2.1c0.5,0,0.9,0.4,0.9,0.9v2.1C855.4-1044.3,855-1043.9,854.5-1043.9
	L854.5-1043.9L854.5-1043.9z M847.3-1043.9h-2.1c-0.5,0-0.9-0.4-0.9-0.9v-2.1c0-0.5,0.4-0.9,0.9-0.9h2.1c0.5,0,0.9,0.4,0.9,0.9v2.1
	C848.2-1044.3,847.8-1043.9,847.3-1043.9L847.3-1043.9z M854.7-1027.7h-2.1c-0.5,0-0.9-0.4-0.9-0.9v-2.1c0-0.5,0.4-0.9,0.9-0.9h2.1
	c0.5,0,0.9,0.4,0.9,0.9v2.1C855.6-1028.1,855.2-1027.7,854.7-1027.7L854.7-1027.7z M847.6-1027.7h-2.1c-0.5,0-0.9-0.4-0.9-0.9v-2.1
	c0-0.5,0.4-0.9,0.9-0.9h2.1c0.5,0,0.9,0.4,0.9,0.9v2.1C848.5-1028.1,848.1-1027.7,847.6-1027.7z"/>
<path class="st1" d="M1221.2-918.7l35.2-35.2c1.3-1.3,3.4-1.3,4.6,0l0,0c1.3,1.3,1.3,3.4,0,4.6l-35.2,35.2c-1.3,1.3-3.4,1.3-4.6,0
	l0,0C1220-915.3,1220-917.4,1221.2-918.7z"/>
<path class="st1" d="M1242.9-918.5l10.2-10.2c1.3-1.3,3.4-1.3,4.6,0l0,0c1.3,1.3,1.3,3.4,0,4.6l-10.2,10.2c-1.3,1.3-3.4,1.3-4.6,0
	l0,0C1241.6-915.2,1241.6-917.2,1242.9-918.5z"/>
<path class="st1" d="M1251-975.9c6.5,3,5.4,12.6-1.6,14.1l0,0l-28.5,6.1l-1.1,0.2l-0.4,1.1l-10.6,29.9c-2.4,6.8-12,6.6-14.1-0.3
	l-23.2-74.6c-1.9-6.2,4.4-11.8,10.2-9l0,0L1251-975.9L1251-975.9z"/>
<path class="st0" d="M-5170-724h900"/>
<path class="st0" d="M-6213.6-724h900"/>
<path class="st0" d="M-7209.5-724h900"/>
<path class="st0" d="M-2210.5-724h900"/>
<path class="st0" d="M-3254.1-724h900"/>
<path class="st0" d="M-4250-724h900"/>
<path class="st0" d="M749-724h900"/>
<path class="st0" d="M-287.6-724L-287.6-724h900"/>
<path class="st0" d="M-1290.5-724h900"/>
<path class="st0" d="M6668-724h900"/>
</svg>
